Season one

In season one, Sinbad and his crew search for Master Dim-Dim, Sinbad and Maeve's old teacher who has disappeared.

    Return of Sinbad, Part 1
    Return of Sinbad, Part 2
    The Beast Within
    Still Life
    The Ronin
    Little Miss Magic
    King Firouz
    The Ties That Bind
    Double Trouble
    Conundrum
    The Prince Who Wasn't
    The Village Vanishes
    Masked Marauders
    The Ghoul's Tale
    The Rescue
    The Eye of Kratos
    The Bully
    Monument
    Trickster
    The Siren's Song
    Isle of Bliss

The Vengeance of Rumina

This Torrent has all files fixed and working

thanks to all who kept this alive

{Quote}Thanks "claudiatannahill" for this torrent, The Audio/Video quality is perfect. I would rate 10/10. This is the best quality on the net. The details are:
Video
ID : 1
Format : AVC
Format/Info : Advanced Video Codec
Format profile : Main@L3.0
Format settings, CABAC : Yes
Format settings, ReFrames : 4 frames
Codec ID : avc1
Codec ID/Info : Advanced Video Coding
Duration : 42mn 57s
Bit rate mode : Variable
Bit rate : 2 078 Kbps
Nominal bit rate : 2 115 Kbps
Width : 720 pixels
Height : 480 pixels
Display aspect ratio : 4:3
Original display aspect ratio : 4:3
Frame rate mode : Constant
Frame rate : 29.970 fps
Standard : NTSC
Resolution : 24 bits
Colorimetry : 4:2:0
Scan type : Progressive
Bits/(Pixel*Frame) : 0.201
Stream size : 638 MiB (92%)

Audio
ID : 2
Format : AAC
Format/Info : Advanced Audio Codec
Format version : Version 4
Format profile : LC
Format settings, SBR : No
Codec ID : 40
Duration : 42mn 57s
Bit rate mode : Variable
Bit rate : 165 Kbps
Maximum bit rate : 258 Kbps
Channel(s) : 2 channels
Channel positions : L R
Sampling rate : 48.0 KHz
Resolution : 16 bits
Stream size : 50.6 MiB (7%)
Language : English 

I will upload season two next